# xmcd
#
# Track frame offsets:
#	150
#	18688
#	41040
#	54278
#	65933
#	79138
#	90928
#	105570
#	117625
#	131105
#	149233
#	165938
#
# Disc length: 2378 seconds
#
# Revision: 2
# Processed by: cddbd v1.4b42PL0 Copyright (c) Steve Scherf et al.
# Submitted via: EZCDDA 4.3.2
#
DISCID=ac09480c
DTITLE=Patrik Ömalm - Into the light
DYEAR=1900
DGENRE=
TTITLE0=The sunny side
TTITLE1=Bring it on easy
TTITLE2=Bullet Blues
TTITLE3=Don't want to see her leave
TTITLE4=Bungalow Rules
TTITLE5=That little sweet thing
TTITLE6=When every weakness makes a call
TTITLE7=Slippin' thru your fingesr
TTITLE8=Wont let it happen again
TTITLE9=Calling for you
TTITLE10=Give me one good reason
TTITLE11=Intoo the light
EXTD=
EXTT0=
EXTT1=
EXTT2=
EXTT3=
EXTT4=
EXTT5=
EXTT6=
EXTT7=
EXTT8=
EXTT9=
EXTT10=
EXTT11=
PLAYORDER=
